<svg width="55" height="55" viewBox="0 0 55 55" fill="none" xmlns="http://www.w3.org/2000/svg">
<path fill-rule="evenodd" clip-rule="evenodd" d="M15.6238 9.52405C13.1418 9.93714 14.8125 11.6138 16.8649 11.9054C18.5832 12.1484 21.8766 12.1484 28.9648 12.1241C37.6041 12.0998 41.3032 12.197 41.8521 12.44C43.2125 13.0718 43.8093 15.5018 44.1911 22.087C44.3343 24.4197 44.6206 27.9189 44.8354 29.8628C45.5037 36.1078 44.8832 36.7153 37.0314 37.0312C34.0004 37.1527 30.0626 37.3957 28.2965 37.5658C20.0391 38.3677 14.9078 38.2218 12.044 37.0555C9.65741 36.0835 9.77679 35.3059 9.70519 33.6778C9.53813 30.5189 9.6097 24.0795 9.91993 18.2233C10.1825 13.3148 10.4927 12.3428 12.044 11.6138C12.9986 11.1764 12.6645 10.6661 11.4712 10.7147C9.6813 10.8119 8.29711 11.4194 8.03459 14.2625C7.70047 17.7616 5.57636 36.9826 9.39486 38.6107C11.9007 39.6799 16.2682 40.7247 17.9865 40.7247C19.1798 40.7247 19.1321 42.0855 17.9388 42.45C15.1943 43.2519 17.1274 45.1959 20.7549 45.3417C28.1056 45.5846 38.8452 44.9772 38.9407 44.2725C39.0361 43.5678 37.4849 41.964 36.6734 41.964C36.4109 41.964 36.2437 41.6481 36.2437 41.1864C36.2437 40.5303 36.2438 39.6069 36.9836 39.6069C40.1578 39.6069 41.8521 39.4611 42.8068 39.2424C47.4606 38.2218 47.6516 35.0143 47.6039 33.1433C47.4368 25.4889 46.0287 18.1747 46.0287 16.4495C46.0048 13.4606 44.2866 10.5203 40.6112 9.98574C39.1793 9.54835 18.082 9.11095 15.6238 9.52405ZM28.0817 24.3954C27.7953 24.0795 25.027 20.9449 24.2632 20.143C23.3086 19.1467 22.3301 19.4626 20.2776 21.3822C19.2275 22.3785 17.5808 23.8608 16.6023 24.7113C13.2135 27.6273 12.9508 28.9394 15.7432 28.9394C16.6978 28.9394 17.1513 28.5992 19.9913 25.6347C23.6666 21.7953 23.3325 21.8196 26.5305 24.9786C28.6784 27.0926 28.4158 27.117 31.9003 24.3468C34.9073 21.5038 36.6257 19.6084 38.7974 17.3971C40.9453 15.2102 37.6518 14.2139 35.9097 15.7204C33.8572 17.4457 28.1056 24.3711 28.0817 24.3954ZM35.8142 23.2533C35.3846 24.3711 35.5994 31.8311 36.0768 32.2928C37.2462 33.4835 37.9622 30.932 37.8906 25.8777C37.8428 23.0832 36.5063 21.4066 35.8142 23.2533ZM21.996 26.2908C21.2562 28.2834 21.8766 33.7265 23.3802 33.4592C24.8837 33.1919 23.8575 27.1898 23.5234 26.3151C23.3086 25.6833 22.2346 25.659 21.996 26.2908ZM31.7093 26.8496C31.3035 27.3599 30.8979 31.1264 31.1604 32.147C31.6139 33.9694 33.4992 33.1676 33.4992 31.1507C33.4992 27.7731 32.64 25.7076 31.7093 26.8496ZM18.1298 29.4497C17.7718 29.8142 17.9149 32.5358 18.3445 33.1189C19.1082 34.1881 19.7764 33.5078 19.7764 31.6367C19.7526 29.6927 18.9411 28.5993 18.1298 29.4497ZM26.3634 29.4497C25.7428 30.0815 26.1724 32.6815 26.9361 33.046C28.1533 33.6049 28.559 32.0741 27.8192 29.6441C27.6999 29.2067 26.7214 29.0852 26.3634 29.4497ZM32.5208 40.0201C33.4755 40.2874 33.1175 41.1621 33.2129 41.964L22.1869 42.1584C22.1869 42.0855 22.3779 40.1658 22.3779 40.2873C23.1415 40.263 30.1342 39.9715 31.0888 39.8986C31.4707 39.85 32.139 39.9229 32.5208 40.0201Z" fill="#006B99"/>
</svg>
