<svg width="55" height="55" viewBox="0 0 55 55" fill="none" xmlns="http://www.w3.org/2000/svg">
<path d="M24.0913 10.1123C26.3601 11.7056 27.4999 13.8095 28.8402 16.2854C29.2439 17.0193 29.6487 17.7525 30.0547 18.4849C30.2302 18.8079 30.4058 19.1309 30.5867 19.4637C31.0965 20.3787 31.0965 20.3787 32.0157 21.3129C33.2154 21.3823 33.2154 21.3823 34.5504 21.2175C35.0017 21.1788 35.4529 21.14 35.9179 21.1001C37.1624 20.928 37.1624 20.928 37.848 20.0103C38.5417 19.2765 38.5417 19.2765 39.718 19.185C44.309 19.7207 44.309 19.7207 46 21.3129C46 21.649 46 21.985 46 22.3312C44.1082 22.8321 42.3476 22.8603 40.4063 22.8403C40.462 24.9317 40.5199 27.0229 40.5799 29.1142C40.5999 29.8236 40.6193 30.5331 40.6381 31.2426C40.7403 35.082 40.8787 38.8846 41.3386 42.6959C42.4154 43.032 43.4922 43.368 44.6016 43.7142C44.6016 44.2182 44.6016 44.7222 44.6016 45.2415C42.3667 46.462 39.0314 46.0111 36.6772 45.2734C36.2157 45.0948 35.7542 44.9163 35.2787 44.7324C33.8173 44.2004 32.9804 44.2134 31.4604 44.3207C30.9812 44.35 30.502 44.3792 30.0082 44.4092C29.009 44.4754 28.01 44.5442 27.0111 44.6161C23.4351 44.8273 19.8343 44.9127 16.6913 42.8232C15.5602 41.5151 14.7087 40.1476 13.8362 38.623C13.5863 38.287 13.3363 37.9509 13.0787 37.6047C12.2709 36.3214 11.9374 35.0099 11.5055 33.5318C11.1979 33.0278 10.8902 32.5237 10.5732 32.0044C10.413 30.9245 10.413 30.9245 10.3402 29.7452C10.2335 28.0236 9.90864 26.9075 9.1748 25.3859C8.94173 23.8904 8.94173 23.8904 9.1748 22.3312C10.7533 20.527 12.0087 19.4512 14.3024 19.2765C15.7019 19.2455 17.0982 19.2465 18.4976 19.2765C18.3438 18.9404 18.19 18.6044 18.0315 18.2582C17.9532 17.2281 17.9532 17.2281 17.9441 16.0308C17.9375 15.6384 17.9309 15.2459 17.9241 14.8416C18.044 13.5402 18.3349 12.7471 18.9638 11.6397C20.6707 10.1897 21.9444 9.77036 24.0913 10.1123ZM21.7606 12.1488C21.2064 12.6436 21.2064 12.6436 21.2326 13.5489C21.2415 16.344 21.4382 19.0488 21.7606 21.8221C21.2048 21.8778 20.649 21.9336 20.0763 21.9911C19.3461 22.0723 18.616 22.1538 17.8858 22.2357C17.5196 22.2715 17.1533 22.3073 16.776 22.3441C16.423 22.3851 16.07 22.4261 15.7062 22.4684C15.3816 22.5031 15.0569 22.5377 14.7224 22.5734C13.6314 22.902 13.1658 23.442 12.4378 24.3677C12.6541 24.9189 12.6541 24.9189 12.8748 25.4814C13.4814 27.2351 13.7588 28.9516 14.0402 30.7953C14.2617 32.1298 14.2617 32.1298 15.2346 33.5318C15.3692 34.0253 15.5038 34.5188 15.6425 35.0273C16.2127 36.7227 16.8435 37.4065 18.0315 38.623C18.1757 38.98 18.3199 39.337 18.4685 39.7049C19.1991 41.113 19.8746 41.2402 21.2945 41.6777C22.6117 41.6011 23.842 41.4736 25.1402 41.264C25.8126 41.1651 26.4851 41.0663 27.1577 40.9677C27.4909 40.9168 27.8241 40.8658 28.1673 40.8133C29.9129 40.5579 31.6632 40.3563 33.4142 40.1503C33.4414 38.273 33.4579 36.3957 33.4724 34.5182C33.4803 33.9896 33.4881 33.4609 33.4961 32.9163C33.5127 30.0577 33.5168 27.5299 32.4819 24.8768C31.7014 24.1591 31.7014 24.1591 30.7339 23.8585C27.9885 22.5572 26.5332 20.712 25.3313 17.7233C24.9436 16.6485 24.5716 15.5667 24.2188 14.4776C23.5576 13.0178 23.1436 12.6746 21.7606 12.1488ZM35.7449 24.3677C35.8101 26.4891 35.8792 28.6104 35.9488 30.7316C35.9671 31.3289 35.9855 31.9261 36.0044 32.5414C36.1072 35.617 36.2665 38.6322 36.6772 41.6777C36.9848 41.6777 37.2925 41.6777 37.6094 41.6777C37.4556 35.9654 37.3018 30.2531 37.1433 24.3677C36.6818 24.3677 36.2203 24.3677 35.7449 24.3677Z" fill="#006B99"/>
</svg>
