<svg width="55" height="55" viewBox="0 0 55 55" fill="none" xmlns="http://www.w3.org/2000/svg">
<path d="M20.7518 5.12708C23.4311 6.43391 25.3694 7.62309 26.95 10.3124C27.0209 12.114 27.0209 12.114 26.7094 14.2154C26.6541 14.5988 26.5988 14.9823 26.5418 15.3773C25.9579 19.2096 25.2137 23.017 24.475 26.8196C24.3577 27.4247 24.2404 28.0297 24.1196 28.6532C24.0043 29.2216 23.8891 29.79 23.7703 30.3757C23.6679 30.8844 23.5654 31.3931 23.4599 31.9172C23.1 33.2291 23.1 33.2291 22 34.9478C20.4845 35.106 19.112 35.1613 17.6 35.1269C17.1945 35.1287 16.7889 35.1306 16.3711 35.1325C13.3469 35.1008 13.3469 35.1008 12.1 33.802C10.8462 27.9732 10.8487 21.846 10.7759 15.8958C10.7649 15.0864 10.7494 14.2771 10.7294 13.4679C10.7031 12.3164 10.6976 11.1644 10.6928 10.0125C10.6854 9.33946 10.678 8.66639 10.6703 7.97292C11 6.302 11 6.302 12.3143 5.22751C15.1409 3.95908 17.8594 4.07967 20.7518 5.12708ZM14.85 9.16659C14.8871 10.6659 14.9592 12.147 15.0563 13.6425C15.1118 14.5757 15.1669 15.5089 15.2217 16.4422C15.2512 16.9343 15.2807 17.4265 15.3111 17.9335C15.4629 20.5723 15.5855 23.2125 15.7094 25.8528C15.7559 26.833 15.8025 27.8132 15.849 28.7935C15.8823 29.501 15.9157 30.2085 15.95 30.9374C16.4945 31.1265 17.039 31.3155 17.6 31.5103C18.7117 26.8608 19.6194 22.1849 20.4531 17.4739C20.5515 16.9265 20.6499 16.3792 20.7512 15.8153C20.8421 15.2932 20.9331 14.7712 21.0268 14.2333C21.1084 13.7677 21.1901 13.302 21.2742 12.8223C21.4579 11.3968 21.4802 10.0302 21.45 8.59367C20.4532 8.57827 19.4563 8.56712 18.4594 8.55786C17.6267 8.54789 17.6267 8.54789 16.7771 8.53772C15.4329 8.42974 15.4329 8.42974 14.85 9.16659Z" fill="#006B99"/>
<path d="M33.6188 12.8906C37.4729 13.4087 41.2113 14.8556 44 17.7604C44.7308 20.044 43.9914 21.3753 43.1406 23.4896C42.9905 23.8705 42.8403 24.2514 42.6856 24.6438C38.9809 33.8454 38.9809 33.8454 36.3 36.0938C33.268 36.4653 30.7442 35.7815 28.05 34.375C26.95 33.2292 26.95 33.2292 26.8039 31.5887C26.8953 28.4203 27.5744 25.3309 28.1875 22.2363C28.3002 21.6178 28.413 20.9993 28.5291 20.362C28.6461 19.7672 28.7631 19.1723 28.8836 18.5594C29.0391 17.7516 29.0391 17.7516 29.1978 16.9275C30.0409 14.4785 31.1495 13.3022 33.6188 12.8906ZM35.2 16.6146C34.647 18.9652 34.0981 21.3168 33.55 23.6686C33.3926 24.3374 33.2352 25.0061 33.0731 25.6951C32.8497 26.6561 32.8497 26.6561 32.6219 27.6365C32.4145 28.5231 32.4145 28.5231 32.2029 29.4276C31.8437 30.9608 31.8437 30.9608 31.9 32.6563C32.9615 32.5792 32.9615 32.5792 34.1 32.0833C34.9205 30.8695 34.9205 30.8695 35.5373 29.3306C35.7808 28.7716 36.0244 28.2125 36.2753 27.6365C36.6449 26.7536 36.6449 26.7536 37.0219 25.8529C37.2789 25.2687 37.5359 24.6845 37.8007 24.0826C39.3371 21.0051 39.3371 21.0051 39.05 17.7604C37.1185 17.0559 37.1185 17.0559 35.2 16.6146Z" fill="#006B99"/>
<path d="M20.5305 37.8751C24.336 40.2535 24.336 40.2535 25.3 42.3957C25.3 43.8638 25.3 43.8638 24.75 45.2603C21.8704 47.5302 18.9466 47.9091 15.4 47.552C12.879 47.0043 10.9741 46.3011 9.00625 44.5442C7.96205 42.3687 8.07777 41.257 8.8 38.9582C12.6539 35.642 16.11 35.6809 20.5305 37.8751ZM13.1656 40.8202C12.4877 42.1384 12.805 42.722 13.2 44.1145C16.227 44.3 18.3902 44.4198 20.9 42.3957C19.9513 41.078 19.2245 40.2085 17.6322 39.8915C15.9392 39.8362 14.6311 39.895 13.1656 40.8202Z" fill="#006B99"/>
<path d="M31.6594 38.2422C34.748 38.2745 37.5599 38.7919 39.9953 40.9367C40.7 41.823 40.7 41.823 40.7344 43.2194C40.0969 44.8209 39.429 45.6728 37.9887 46.5607C35.1341 47.6099 31.8548 47.5108 28.9867 46.5607C27.4142 45.7316 26.5174 44.9261 25.7125 43.2911C25.9163 41.115 27.0524 40.3402 28.6 38.9584C29.4865 38.035 30.436 38.2656 31.6594 38.2422ZM31.35 40.6771C31.1398 41.626 30.9573 42.5818 30.8 43.5417C31.4513 44.3528 31.4513 44.3528 33.3094 44.1504C34.2452 44.1327 34.2452 44.1327 35.2 44.1146C35.2 43.3584 35.2 42.6021 35.2 41.823C33.5754 40.4653 33.5754 40.4653 31.35 40.6771Z" fill="#006B99"/>
</svg>
