<svg width="55" height="55" viewBox="0 0 55 55" fill="none" xmlns="http://www.w3.org/2000/svg">
<path d="M44 10.3125C45.8175 12.1411 46.419 13.4721 46.6875 16.0212C46.6389 18.6152 45.6128 20.5708 44 22.5893C41.87 24.5039 39.5583 25.4257 36.6855 25.6067C33.7697 25.4321 31.0667 24.4014 28.5 23.0803C27.675 23.7286 26.85 24.3768 26 25.0446C26.1257 25.6229 26.1257 25.6229 26.2539 26.2128C26.8583 29.2749 27.2137 31.4611 26 34.375C26.825 34.6991 27.65 35.0232 28.5 35.3571C28.8506 34.9824 29.2012 34.6076 29.5625 34.2215C31.238 32.6833 32.6807 31.4028 35.0801 31.4497C36.0591 31.5667 37.031 31.7391 38 31.9196C38 32.4058 38 32.8919 38 33.3928C37.6984 33.465 37.3967 33.5372 37.0859 33.6115C35.035 34.1768 33.7479 34.6225 32.2187 36.1244C31.2567 38.3839 31.0299 40.3103 31.5 42.7232C32.7131 44.4753 33.3913 45.054 35.5 45.4855C37.5168 45.0728 38.2256 44.2878 39.5 42.7232C40.5025 40.8947 40.7572 39.3847 40.5 37.3214C39.8612 36.3215 39.1965 35.3369 38.5 34.375C38.5 33.8888 38.5 33.4027 38.5 32.9018C40 32.4107 40 32.4107 41.2187 32.9325C42.9819 34.2418 44.0758 35.754 44.875 37.7818C45.2809 41.0708 44.9971 43.4616 43 46.1607C40.4621 48.2378 38.2331 48.4332 34.9687 48.313C32.0209 47.9357 29.9666 46.8293 28.0312 44.6261C26.4863 42.511 26.4051 41.4043 26.5 38.7946C26.7475 38.3085 26.7475 38.3085 27 37.8125C24.9354 37.219 24.2105 37.2086 22.2812 38.2422C21.9867 38.4245 21.6921 38.6068 21.3887 38.7946C18.8667 40.1882 16.2472 39.8221 13.5703 39.1514C10.9163 38.2667 8.96831 36.6926 7.5 34.375C6.30188 31.4535 6.4135 29.1216 7.47656 26.1726C8.50553 23.9553 9.78849 22.5857 11.8437 21.1774C14.862 20.1707 17.7273 20.2152 20.6875 21.3923C22.6508 22.1643 22.6508 22.1643 24.5 21.6071C24.995 21.283 25.49 20.9589 26 20.625C26.1079 18.9032 25.9958 17.2291 25.9062 15.5071C26.0489 12.8342 26.9712 11.3229 28.875 9.45311C33.8294 6.08437 39.2042 7.22977 44 10.3125ZM31.5 12.2768C30.679 14.6957 30.7059 17.1212 31 19.6428C31.8455 21.3331 31.8455 21.3331 33.5 22.0982C35.4333 22.5101 37.1503 22.5473 38.9219 21.611C40.7044 20.2293 41.8223 18.8131 42.168 16.6063C42.2023 14.6625 42.1618 13.5355 41.1562 11.8164C39.4964 10.3624 38.2124 9.92562 36.0312 9.60657C33.8456 9.91323 33.0552 10.7494 31.5 12.2768ZM13.5 25.0446C12.2136 27.2537 11.2942 29.4975 11.4687 32.0731C12.0953 34.2087 12.665 35.0464 14.5 36.3393C16.4273 36.8801 17.4844 37.0423 19.3437 36.2779C21.1471 34.8418 22.7391 33.117 23.5 30.9375C23.7108 28.3291 23.7607 26.6533 22 24.5536C19.558 22.6882 15.6698 23.0319 13.5 25.0446Z" fill="#006B99"/>
</svg>
