<svg width="22" height="23" viewBox="0 0 22 23" fill="none" xmlns="http://www.w3.org/2000/svg">
<g clip-path="url(#clip0_45601_707)">
<path d="M21.723 3.91331C20.9233 4.34219 20.075 4.62361 19.2063 4.74804C20.1212 4.08537 20.8059 3.04254 21.1328 1.81396C20.2728 2.43199 19.3316 2.86719 18.3503 3.1007C17.9403 2.5713 17.4448 2.14948 16.8946 1.86137C16.3444 1.57325 15.7511 1.42499 15.1516 1.42578C12.7317 1.42578 10.7695 3.80049 10.7695 6.73056C10.7695 7.14593 10.8083 7.55125 10.8832 7.93978C7.24106 7.7185 4.01218 5.60639 1.85075 2.39655C1.46103 3.20616 1.25625 4.12669 1.25741 5.06368C1.25684 5.9371 1.43449 6.79717 1.77459 7.5674C2.11469 8.33775 2.60671 8.99433 3.20692 9.47903C2.51113 9.45228 1.83069 9.22475 1.22218 8.81555C1.22163 8.83767 1.22163 8.85944 1.22163 8.88236C1.22163 11.4517 2.73202 13.5958 4.73643 14.0837C4.09103 14.2952 3.41432 14.3262 2.75754 14.1744C3.3151 16.2814 4.9334 17.8157 6.85099 17.8587C5.29869 19.3333 3.38181 20.1332 1.40859 20.1296C1.05491 20.1296 0.706233 20.1048 0.363098 20.0554C2.36679 21.6138 4.6988 22.4411 7.08041 22.4382C15.1409 22.4382 19.5486 14.3553 19.5486 7.34607C19.5486 7.11646 19.5442 6.88702 19.5359 6.65905C20.3942 5.90887 21.135 4.97901 21.723 3.91331Z" fill="black"/>
</g>
<defs>
<clipPath id="clip0_45601_707">
<rect width="22" height="22" fill="white" transform="translate(0 1)"/>
</clipPath>
</defs>
</svg>
